<svg width="24" height="48" viewBox="0 0 24 48" fill="none" xmlns="http://www.w3.org/2000/svg">
<g filter="url(#filter0_d)">
<path d="M7.78182 3.15655C4.58182 3.9574 0 7.45203 0 7.45203C0 7.45203 2.47273 9.27215 2.47273 11.4563V33.5161L1.52727 34.1714C1.52727 34.1714 3.41818 40.287 7.78182 44V21.9402H11.4909V37.5932C12.3636 37.5204 16.6545 33.5161 17.6727 31.0408C17.0182 30.6767 16.6545 30.3855 16.6545 30.3855V11.4563C16.6545 6.06874 19.2 0.972412 20 0.0987524C17.5273 -0.483685 11.4909 1.70046 11.4909 1.70046V16.9894H7.78182V3.15655Z" fill="white"/>
</g>
<defs>
<filter id="filter0_d" x="0" y="0" width="24" height="48" filterUnits="userSpaceOnUse" color-interpolation-filters="sRGB">
<feFlood flood-opacity="0" result="BackgroundImageFix"/>
<feColorMatrix in="SourceAlpha" type="matrix" values="0 0 0 0 0 0 0 0 0 0 0 0 0 0 0 0 0 0 127 0" result="hardAlpha"/>
<feOffset dx="4" dy="4"/>
<feComposite in2="hardAlpha" operator="out"/>
<feColorMatrix type="matrix" values="0 0 0 0 0.0375 0 0 0 0 0.0375 0 0 0 0 0.0375 0 0 0 1 0"/>
<feBlend mode="normal" in2="BackgroundImageFix" result="effect1_dropShadow"/>
<feBlend mode="normal" in="SourceGraphic" in2="effect1_dropShadow" result="shape"/>
</filter>
</defs>
</svg>
